<svg width="16" height="16" viewBox="0 0 16 16" fill="none" xmlns="http://www.w3.org/2000/svg">
<path d="M1.76026 5.67858C3.56301 4.17458 5.6384 3.33333 7.83319 3.33333C10.028 3.33333 12.1034 4.17458 13.9061 5.67858C14.1888 5.91444 14.6092 5.87646 14.8451 5.59374C15.081 5.31102 15.043 4.89063 14.7603 4.65476C12.7557 2.98237 10.3862 2 7.83319 2C5.28022 2 2.91069 2.98237 0.906111 4.65476C0.623392 4.89063 0.585411 5.31102 0.821279 5.59374C1.05715 5.87646 1.47754 5.91444 1.76026 5.67858Z" fill="#424551"/>
<path fill-rule="evenodd" clip-rule="evenodd" d="M2.73369 6.45935C3.93271 5.44709 5.6428 4.5 7.58317 4.5C9.52354 4.5 11.2336 5.44709 12.4326 6.45935C13.0371 6.96963 13.5326 7.51363 13.8828 7.99952C14.0576 8.24199 14.2033 8.47992 14.3083 8.70052C14.4046 8.90315 14.4998 9.15887 14.4998 9.41667C14.4998 9.67447 14.4046 9.93019 14.3083 10.1328C14.2033 10.3534 14.0576 10.5913 13.8828 10.8338C13.5326 11.3197 13.0371 11.8637 12.4326 12.374C11.2336 13.3862 9.52354 14.3333 7.58317 14.3333C5.6428 14.3333 3.93271 13.3862 2.73369 12.374C2.12927 11.8637 1.6337 11.3197 1.2835 10.8338C1.10874 10.5913 0.962994 10.3534 0.85809 10.1328C0.761731 9.93019 0.666504 9.67447 0.666504 9.41667C0.666504 9.15887 0.761731 8.90315 0.85809 8.70052C0.962994 8.47992 1.10874 8.24199 1.2835 7.99952C1.6337 7.51363 2.12927 6.96963 2.73369 6.45935ZM2.00456 9.41667C2.01131 9.43924 2.02687 9.4859 2.06221 9.56021C2.12381 9.68976 2.22365 9.85786 2.36516 10.0542C2.64748 10.4459 3.06721 10.9106 3.59381 11.3552C4.65685 12.2526 6.07176 13 7.58317 13C9.09458 13 10.5095 12.2526 11.5725 11.3552C12.0991 10.9106 12.5189 10.4459 12.8012 10.0542C12.9427 9.85786 13.0425 9.68976 13.1041 9.56021C13.1395 9.4859 13.155 9.43924 13.1618 9.41666C13.155 9.39409 13.1395 9.34743 13.1041 9.27312C13.0425 9.14357 12.9427 8.97547 12.8012 8.77913C12.5189 8.38742 12.0991 7.92274 11.5725 7.47816C11.3489 7.28939 11.1098 7.10726 10.8574 6.93733C10.9501 7.24756 10.9998 7.5763 10.9998 7.91667C10.9998 9.80364 9.47014 11.3333 7.58317 11.3333C5.6962 11.3333 4.1665 9.80364 4.1665 7.91667C4.1665 7.5763 4.21627 7.24756 4.30893 6.93733C4.05658 7.10726 3.81741 7.28939 3.59381 7.47816C3.06721 7.92274 2.64748 8.38742 2.36516 8.77913C2.22365 8.97547 2.12381 9.14357 2.06221 9.27312C2.02687 9.34743 2.01131 9.39409 2.00456 9.41667ZM5.49984 7.91667C5.49984 6.76607 6.43258 5.83333 7.58317 5.83333C8.73376 5.83333 9.6665 6.76607 9.6665 7.91667C9.6665 9.06726 8.73376 10 7.58317 10C6.43258 10 5.49984 9.06726 5.49984 7.91667Z" fill="#424551"/>
</svg>
