<svg width="18" height="18" viewBox="0 0 18 18" fill="none" xmlns="http://www.w3.org/2000/svg">
<path d="M17.3285 17.3337L17.3327 17.333V11.2205C17.3327 8.23019 16.6889 5.92671 13.1931 5.92671C11.5125 5.92671 10.3848 6.84894 9.92435 7.72324H9.87574V6.20588H6.56115V17.333H10.0125V11.8232C10.0125 10.3726 10.2875 8.96977 12.0841 8.96977C13.8542 8.96977 13.8806 10.6253 13.8806 11.9163V17.3337H17.3285Z" fill="#787A80"/>
<path d="M0.941011 6.20657H4.39657V17.3337H0.941011V6.20657Z" fill="#787A80"/>
<path d="M2.6674 0.666992C1.56254 0.666992 0.666016 1.56352 0.666016 2.66838C0.666016 3.77324 1.56254 4.68852 2.6674 4.68852C3.77227 4.68852 4.66879 3.77324 4.66879 2.66838C4.6681 1.56352 3.77157 0.666992 2.6674 0.666992Z" fill="#787A80"/>
</svg>
