<svg width="18" height="18" viewBox="0 0 18 18" fill="none" xmlns="http://www.w3.org/2000/svg">
<path d="M17.329 17.3337L17.3332 17.333V11.2205C17.3332 8.23019 16.6894 5.92671 13.1936 5.92671C11.513 5.92671 10.3853 6.84894 9.92483 7.72324H9.87622V6.20588H6.56163V17.333H10.013V11.8232C10.013 10.3726 10.288 8.96977 12.0846 8.96977C13.8547 8.96977 13.8811 10.6253 13.8811 11.9163V17.3337H17.329Z" fill="#787A80"/>
<path d="M0.9415 6.20657H4.39706V17.3337H0.9415V6.20657Z" fill="#787A80"/>
<path d="M2.66789 0.666992C1.56303 0.666992 0.666504 1.56352 0.666504 2.66838C0.666504 3.77324 1.56303 4.68852 2.66789 4.68852C3.77275 4.68852 4.66928 3.77324 4.66928 2.66838C4.66859 1.56352 3.77206 0.666992 2.66789 0.666992Z" fill="#787A80"/>
</svg>
