<svg width="10" height="20" viewBox="0 0 10 20" fill="none" xmlns="http://www.w3.org/2000/svg">
<path d="M9.63586 0.836822L7.32148 0.833008C4.72134 0.833008 3.04102 2.60392 3.04102 5.34487V7.42513H0.714012C0.512931 7.42513 0.350098 7.59259 0.350098 7.79915V10.8132C0.350098 11.0198 0.513117 11.187 0.714012 11.187H3.04102V18.7925C3.04102 18.9991 3.20386 19.1663 3.40494 19.1663H6.44103C6.64211 19.1663 6.80494 18.9989 6.80494 18.7925V11.187H9.52576C9.72684 11.187 9.88967 11.0198 9.88967 10.8132L9.89079 7.79915C9.89079 7.69997 9.85235 7.60499 9.78421 7.5348C9.71607 7.46461 9.62324 7.42513 9.52669 7.42513H6.80494V5.66166C6.80494 4.81407 7.00157 4.38379 8.07641 4.38379L9.63549 4.38322C9.83639 4.38322 9.99922 4.21576 9.99922 4.00939V1.21065C9.99922 1.00447 9.83657 0.837204 9.63586 0.836822Z" fill="#787A80"/>
</svg>
