<svg width="18" height="18" viewBox="0 0 18 18" fill="none" xmlns="http://www.w3.org/2000/svg">
<path d="M9.1761 7.75219H17.4056C17.4964 8.25921 17.5418 8.74352 17.5418 9.20513C17.5418 10.8472 17.1975 12.3134 16.5089 13.6037C15.8203 14.8939 14.8384 15.9022 13.5633 16.6287C12.2882 17.3552 10.8258 17.7184 9.1761 17.7184C7.98803 17.7184 6.85671 17.4895 5.78214 17.0317C4.70757 16.5739 3.78057 15.9552 3.00113 15.1758C2.22169 14.3963 1.60306 13.4693 1.14523 12.3948C0.687409 11.3202 0.458496 10.1889 0.458496 9.00081C0.458496 7.81273 0.687409 6.68141 1.14523 5.60685C1.60306 4.53228 2.22169 3.60528 3.00113 2.82584C3.78057 2.0464 4.70757 1.42777 5.78214 0.969942C6.85671 0.512116 7.98803 0.283203 9.1761 0.283203C11.4463 0.283203 13.3949 1.04372 15.0219 2.56476L12.6495 4.84633C11.7187 3.94581 10.5609 3.49555 9.1761 3.49555C8.19991 3.49555 7.2975 3.74149 6.46888 4.23337C5.64025 4.72525 4.98378 5.39307 4.49947 6.23683C4.01516 7.08059 3.773 8.00192 3.773 9.00081C3.773 9.9997 4.01516 10.921 4.49947 11.7648C4.98378 12.6086 5.64025 13.2764 6.46888 13.7683C7.2975 14.2601 8.19991 14.5061 9.1761 14.5061C9.83446 14.5061 10.4399 14.4153 10.9923 14.2336C11.5447 14.052 11.9987 13.825 12.3544 13.5526C12.7101 13.2802 13.0203 12.9699 13.2852 12.6218C13.55 12.2737 13.7449 11.9445 13.8698 11.6343C13.9946 11.324 14.0798 11.0289 14.1252 10.7489H9.1761V7.75219Z" fill="#787A80"/>
</svg>
