<svg width="525" height="620" viewBox="0 0 525 620" fill="none" xmlns="http://www.w3.org/2000/svg">
<path d="M522.288 619.211L357.62 619.671C337.436 619.89 315.996 620 293.759 620C239.633 620 190.159 619.299 152.32 618.138H0C0 575.956 29.6119 594.484 37.42 601.931C46.4991 610.582 34.808 564.523 53.3434 564.523C69.2109 564.523 78.29 577.029 78.29 577.029C78.29 577.029 78.7231 552.718 93.7665 552.368C108.81 552.017 118.364 572.802 130.237 589.907C135.139 596.959 141.034 602.566 146.607 606.837C185.117 605.567 236.854 604.778 293.759 604.778C320.717 604.778 346.502 604.953 370.289 605.282C412.556 605.282 451.261 570.436 462.24 561.698C489.365 540.059 476.515 591.637 476.515 591.637C476.515 591.637 497.425 577.839 512.133 577.949C532.903 578.08 522.288 619.211 522.288 619.211Z" fill="#D0F0E4"/>
<path fill-rule="evenodd" clip-rule="evenodd" d="M351.7 539.473L352.525 539.842C373.864 549.397 382.86 569.014 386.53 586.13C388.366 594.693 388.876 602.659 388.928 608.482C388.954 611.394 388.865 613.773 388.77 615.426C388.722 616.252 388.673 616.897 388.635 617.337C388.616 617.557 388.601 617.726 388.589 617.84C388.584 617.897 388.579 617.941 388.576 617.97L388.573 618.004L388.572 618.013L388.571 618.015C388.571 618.016 388.571 618.017 387.924 617.944C387.276 617.872 387.276 617.872 387.276 617.871L387.276 617.87L387.277 617.863L387.28 617.833C387.283 617.806 387.287 617.765 387.292 617.711C387.303 617.602 387.319 617.439 387.337 617.225C387.373 616.796 387.422 616.163 387.469 615.35C387.563 613.722 387.651 611.373 387.625 608.493C387.574 602.732 387.069 594.86 385.256 586.406C381.677 569.714 373.029 550.867 352.827 541.421C352.788 541.872 352.739 542.479 352.684 543.223C352.556 544.954 352.395 547.423 352.269 550.372C352.016 556.275 351.897 564.092 352.432 571.771C352.793 576.948 353.449 582.03 354.548 586.412C357.586 587.615 360.225 588.952 362.405 590.303C365.782 592.396 368.138 594.573 369.129 596.409C369.622 597.323 369.845 598.283 369.496 599.127C369.139 599.99 368.287 600.487 367.2 600.704L367.199 600.704C364.399 601.26 362.011 600.684 360.017 599.229C358.047 597.79 356.505 595.526 355.293 592.772C354.579 591.15 353.971 589.339 353.455 587.393C347.546 585.13 340.133 583.385 331.649 583.046C331.742 583.194 331.846 583.357 331.959 583.533C332.582 584.504 333.502 585.894 334.687 587.564C337.057 590.906 340.482 595.364 344.702 599.836C353.172 608.812 364.713 617.698 377.272 617.944L377.247 619.256C364.132 618.999 352.271 609.762 343.757 600.739C339.484 596.211 336.021 591.702 333.626 588.326C332.429 586.637 331.497 585.231 330.864 584.245C330.548 583.752 330.306 583.364 330.143 583.099C330.061 582.966 330 582.864 329.958 582.795C329.937 582.76 329.921 582.734 329.91 582.716L329.898 582.695L329.894 582.688C329.894 582.688 329.894 582.687 330.453 582.352L329.894 582.687L329.291 581.668L330.469 581.696C339.201 581.904 346.882 583.585 353.071 585.849C352.071 581.56 351.471 576.722 351.132 571.863C350.592 564.115 350.713 556.245 350.967 550.316C351.094 547.35 351.255 544.868 351.384 543.126C351.449 542.255 351.506 541.569 351.546 541.1C351.567 540.866 351.583 540.685 351.594 540.564C351.6 540.503 351.604 540.457 351.607 540.425L351.61 540.39L351.611 540.378C351.611 540.378 351.612 540.377 352.26 540.441L351.612 540.377L351.7 539.473ZM354.975 588C355.415 589.526 355.916 590.949 356.484 592.241C357.646 594.881 359.069 596.916 360.782 598.167C362.473 599.401 364.49 599.905 366.946 599.417C367.829 599.241 368.174 598.909 368.293 598.622C368.42 598.316 368.399 597.803 367.984 597.035C367.158 595.505 365.038 593.476 361.722 591.42C359.825 590.245 357.562 589.076 354.975 588Z" fill="#FFCF2D"/>
<path fill-rule="evenodd" clip-rule="evenodd" d="M409.491 583.137C408.562 583.236 407.393 583.499 405.952 583.961C393.173 588.07 386.189 596.714 382.391 604.35C380.49 608.171 379.39 611.736 378.764 614.345C378.452 615.648 378.259 616.711 378.144 617.446C378.087 617.813 378.049 618.098 378.026 618.289C378.014 618.385 378.006 618.457 378.001 618.505C377.998 618.529 377.996 618.547 377.995 618.558L377.994 618.57L377.994 618.572L377.994 618.573C377.994 618.573 377.994 618.572 377.345 618.513C376.696 618.453 376.696 618.453 376.696 618.452L376.696 618.451L376.697 618.446L376.699 618.429C376.7 618.414 376.702 618.393 376.705 618.366C376.711 618.312 376.719 618.233 376.732 618.13C376.757 617.924 376.797 617.625 376.857 617.242C376.976 616.477 377.176 615.379 377.498 614.037C378.14 611.355 379.271 607.692 381.226 603.763C385.138 595.898 392.359 586.954 405.556 582.711L405.556 582.711C407.047 582.233 408.307 581.944 409.354 581.832C410.393 581.721 411.27 581.781 411.965 582.047C412.686 582.323 413.192 582.817 413.45 583.495C413.696 584.144 413.691 584.897 413.541 585.681C413.243 587.242 412.321 589.183 411.053 591.293C409.776 593.418 408.111 595.774 406.27 598.177C402.589 602.983 398.176 608.019 394.689 611.849C392.945 613.764 391.43 615.381 390.351 616.518C389.811 617.087 389.38 617.536 389.084 617.843C388.936 617.997 388.822 618.115 388.745 618.195C388.706 618.235 388.676 618.265 388.656 618.286L388.627 618.316C388.626 618.317 388.626 618.317 388.161 617.857C387.697 617.397 387.697 617.397 387.697 617.397L387.726 617.368C387.745 617.348 387.774 617.318 387.812 617.278C387.889 617.2 388.002 617.083 388.149 616.93C388.443 616.625 388.871 616.178 389.408 615.612C390.482 614.48 391.991 612.87 393.729 610.962C397.205 607.144 401.589 602.139 405.238 597.376C407.063 594.993 408.696 592.681 409.938 590.614C411.19 588.532 412.009 586.756 412.261 585.434C412.387 584.775 412.358 584.295 412.232 583.963C412.118 583.661 411.903 583.427 411.501 583.273C411.074 583.109 410.427 583.037 409.491 583.137Z" fill="#FFCF2D"/>
<path fill-rule="evenodd" clip-rule="evenodd" d="M129.685 514.944L129.239 515.256C129.685 514.944 129.685 514.944 129.686 514.945L129.686 514.946L129.688 514.949L129.694 514.958C129.699 514.965 129.706 514.975 129.714 514.988C129.731 515.014 129.755 515.05 129.785 515.099C129.845 515.196 129.93 515.34 130.038 515.535C130.253 515.926 130.557 516.521 130.922 517.358C131.652 519.032 132.627 521.672 133.628 525.564C135.568 533.102 137.609 545.346 138.16 564.392C138.637 563.601 139.278 562.548 140.058 561.296C141.851 558.414 144.373 554.472 147.293 550.236C153.115 541.786 160.567 532.083 166.969 527.322L167.887 526.639L167.834 527.786L167.292 527.761C167.834 527.786 167.834 527.787 167.834 527.787L167.833 527.815C167.832 527.834 167.831 527.861 167.829 527.898C167.825 527.971 167.82 528.079 167.812 528.221C167.797 528.504 167.774 528.922 167.742 529.46C167.676 530.537 167.573 532.096 167.42 534.027C167.116 537.888 166.615 543.238 165.832 549.195C164.359 560.392 161.88 573.793 157.794 583.465C157.988 583.344 158.198 583.216 158.422 583.084C159.808 582.267 161.756 581.28 163.994 580.612C168.474 579.274 174.197 579.203 178.797 584.438C181.12 587.082 181.724 590.047 181.325 592.972C180.929 595.874 179.547 598.731 177.916 601.227C176.28 603.73 174.37 605.907 172.873 607.456C172.123 608.231 171.475 608.852 171.013 609.279C170.782 609.492 170.598 609.658 170.47 609.77C170.407 609.827 170.357 609.87 170.323 609.899C170.307 609.914 170.294 609.925 170.285 609.932L170.274 609.941L170.271 609.944C170.27 609.945 170.27 609.945 169.92 609.527C169.716 609.284 169.631 609.182 169.595 609.14L169.57 609.11L169.57 609.109L169.572 609.108L169.58 609.1C169.588 609.094 169.6 609.084 169.615 609.07C169.635 609.054 169.66 609.031 169.692 609.004C169.71 608.987 169.731 608.969 169.754 608.949C169.875 608.842 170.054 608.682 170.278 608.474C170.727 608.058 171.361 607.452 172.094 606.694C173.563 605.174 175.424 603.052 177.008 600.627C178.597 598.196 179.884 595.498 180.249 592.823C180.611 590.171 180.07 587.537 177.984 585.163C173.766 580.363 168.553 580.391 164.302 581.66C162.174 582.295 160.308 583.239 158.971 584.027C158.303 584.421 157.77 584.773 157.406 585.027C157.223 585.154 157.083 585.256 156.99 585.325C156.943 585.36 156.908 585.386 156.885 585.404C156.873 585.413 156.865 585.419 156.859 585.423L156.854 585.428L156.853 585.429L156.852 585.429L155.062 586.832L156.028 584.765C160.507 575.174 163.192 560.939 164.755 549.052C165.536 543.118 166.034 537.788 166.338 533.94C166.49 532.017 166.593 530.465 166.658 529.394C166.668 529.224 166.677 529.066 166.686 528.921C160.655 533.779 153.728 542.815 148.185 550.859C145.278 555.078 142.765 559.004 140.978 561.876C140.085 563.312 139.373 564.484 138.886 565.296C138.642 565.702 138.454 566.019 138.327 566.233C138.263 566.341 138.215 566.422 138.183 566.477L138.147 566.539L138.135 566.559L138.135 566.56C138.135 566.56 138.135 566.56 137.666 566.283L138.135 566.56L137.168 568.217L137.124 566.296C136.657 546.236 134.554 533.522 132.577 525.838C131.588 521.996 130.632 519.413 129.927 517.798C129.617 517.085 129.355 516.561 129.162 516.201C125.969 520.16 123.201 525.874 120.842 532.31C118.367 539.062 116.357 546.563 114.777 553.571C113.197 560.577 112.05 567.08 111.297 571.831C110.921 574.207 110.643 576.144 110.46 577.487C110.368 578.158 110.3 578.681 110.255 579.036C110.232 579.213 110.215 579.348 110.204 579.439C110.198 579.484 110.194 579.518 110.191 579.541L110.187 579.575C110.187 579.575 110.187 579.575 109.648 579.51L110.187 579.575L110.012 581.045L109.196 579.813C102.281 569.371 90.6414 561.662 80.6778 556.555C75.7038 554.005 71.1642 552.112 67.8687 550.857C66.2212 550.23 64.8853 549.762 63.9625 549.451C63.7787 549.389 63.6113 549.334 63.461 549.284C68.7953 569.68 80.4675 586.166 90.8946 597.612C96.1869 603.421 101.152 607.925 104.793 610.975C106.614 612.5 108.103 613.662 109.135 614.441C109.651 614.831 110.053 615.125 110.325 615.321C110.461 615.419 110.565 615.493 110.634 615.541C110.669 615.566 110.695 615.584 110.712 615.596L110.731 615.609L110.736 615.612L110.737 615.613C110.737 615.613 110.737 615.613 110.43 616.064C110.123 616.515 110.123 616.515 110.123 616.514L110.115 616.509L110.094 616.495C110.075 616.482 110.048 616.462 110.012 616.437C109.939 616.386 109.833 616.31 109.693 616.21C109.415 616.009 109.006 615.71 108.483 615.316C107.438 614.526 105.934 613.353 104.099 611.815C100.428 608.74 95.4254 604.202 90.0942 598.35C79.436 586.651 67.4393 569.673 62.1642 548.599L61.9307 547.666L62.8463 547.941L62.6907 548.465C62.8463 547.941 62.8465 547.942 62.8469 547.942L62.8532 547.944L62.8721 547.949C62.8887 547.954 62.9131 547.962 62.9452 547.972C63.0093 547.992 63.1041 548.021 63.2279 548.061C63.4756 548.139 63.8395 548.257 64.3069 548.414C65.2417 548.729 66.591 549.202 68.253 549.835C71.5765 551.101 76.1536 553.009 81.1706 555.581C90.8161 560.525 102.15 567.952 109.291 578.026C109.319 577.818 109.35 577.588 109.384 577.338C109.568 575.989 109.847 574.043 110.225 571.659C110.98 566.891 112.132 560.364 113.718 553.329C115.304 546.295 117.326 538.744 119.823 531.932C122.316 525.129 125.3 519.018 128.828 514.899L129.285 514.365L129.685 514.944Z" fill="#FE5244"/>
<path fill-rule="evenodd" clip-rule="evenodd" d="M128.717 516.681C128.717 516.68 128.717 516.68 129.26 516.678C129.803 516.675 129.803 516.676 129.803 516.676L129.804 516.927C129.805 517.093 129.806 517.34 129.806 517.662C129.808 518.307 129.81 519.254 129.811 520.462C129.814 522.88 129.813 526.346 129.799 530.541C129.772 538.931 129.695 550.236 129.494 561.896C129.293 573.555 128.968 585.574 128.446 595.391C128.185 600.298 127.875 604.661 127.505 608.155C127.138 611.631 126.707 614.3 126.189 615.787L125.164 615.425C125.635 614.075 126.057 611.525 126.425 608.039C126.792 604.572 127.101 600.231 127.362 595.332C127.883 585.535 128.207 573.532 128.408 561.877C128.609 550.224 128.686 538.924 128.713 530.538C128.727 526.345 128.728 522.88 128.725 520.464C128.724 519.255 128.722 518.309 128.72 517.665C128.72 517.343 128.719 517.097 128.718 516.931L128.717 516.681Z" fill="#FE5244"/>
<path fill-rule="evenodd" clip-rule="evenodd" d="M165.569 529.772C165.569 529.771 165.569 529.771 166.075 529.969C166.581 530.167 166.581 530.168 166.581 530.168L166.562 530.216C166.549 530.249 166.531 530.297 166.506 530.361C166.456 530.489 166.382 530.679 166.285 530.928C166.091 531.425 165.805 532.156 165.435 533.093C164.696 534.968 163.625 537.666 162.294 540.961C159.632 547.55 155.932 556.53 151.782 566.086C147.631 575.642 143.027 585.78 138.558 594.686C134.093 603.582 129.745 611.283 126.104 615.943L125.25 615.267C128.819 610.7 133.126 603.084 137.589 594.193C142.046 585.313 146.64 575.195 150.787 565.648C154.933 556.103 158.628 547.133 161.288 540.549C162.618 537.257 163.688 534.562 164.426 532.69C164.795 531.754 165.081 531.024 165.274 530.528C165.371 530.28 165.445 530.091 165.494 529.963C165.519 529.9 165.538 529.851 165.55 529.819L165.569 529.772Z" fill="#FE5244"/>
<path fill-rule="evenodd" clip-rule="evenodd" d="M148.868 591.208C147.914 592.419 147.571 593.425 147.806 594.193C147.944 594.633 148.11 594.763 148.21 594.805C148.317 594.849 148.515 594.86 148.857 594.701C149.553 594.379 150.462 593.533 151.42 592.367C152.361 591.222 153.298 589.835 154.057 588.517C154.628 587.526 155.086 586.595 155.373 585.85C154.506 586.4 153.624 586.998 152.779 587.625C151.209 588.788 149.801 590.025 148.868 591.208ZM156.213 585.328C158.247 584.091 160.089 583.166 161.008 582.821L160.63 581.797C159.083 582.376 155.336 584.372 152.135 586.744C150.534 587.931 149.037 589.236 148.018 590.529C147.021 591.793 146.364 593.197 146.769 594.517L146.77 594.519C146.958 595.123 147.282 595.602 147.795 595.815C148.301 596.025 148.838 595.914 149.311 595.694C150.246 595.261 151.287 594.244 152.256 593.064C153.242 591.865 154.212 590.426 154.996 589.065C155.775 587.712 156.394 586.397 156.651 585.448L156.213 585.328Z" fill="#FE5244"/>
<path fill-rule="evenodd" clip-rule="evenodd" d="M110.692 591.117C110.935 591.594 111.174 591.725 111.385 591.733L111.386 591.733C112.075 591.76 112.524 591.644 112.813 591.471C113.089 591.306 113.266 591.061 113.363 590.718C113.574 589.977 113.395 588.84 112.92 587.453C112.249 585.493 111.091 583.311 110.155 581.585C110.142 581.768 110.129 581.952 110.117 582.136C109.951 584.648 109.91 587.131 110.146 588.981C110.265 589.912 110.449 590.636 110.692 591.117ZM109.216 579.77L109.188 579.785C109.196 579.799 109.203 579.814 109.211 579.828C109.144 580.562 109.083 581.312 109.034 582.063C108.866 584.592 108.819 587.161 109.069 589.121C109.193 590.095 109.397 590.966 109.725 591.614C110.055 592.264 110.572 592.795 111.343 592.825C112.158 592.858 112.839 592.728 113.369 592.41C113.913 592.084 114.244 591.593 114.407 591.019C114.718 589.925 114.427 588.501 113.947 587.097C113.189 584.885 111.828 582.383 110.86 580.602C110.661 580.237 110.479 579.902 110.322 579.606C110.474 578.001 110.655 576.488 110.818 575.248C110.942 574.308 111.055 573.526 111.137 572.98C111.178 572.706 111.212 572.492 111.235 572.346C111.246 572.273 111.255 572.217 111.261 572.179L111.268 572.137L111.27 572.124C111.27 572.123 111.27 572.123 110.735 572.034C110.199 571.945 110.199 571.945 110.199 571.945L110.196 571.96L110.189 572.004C110.183 572.043 110.174 572.1 110.162 572.174C110.139 572.323 110.105 572.54 110.064 572.816C109.981 573.369 109.866 574.157 109.742 575.104C109.569 576.422 109.375 578.048 109.216 579.77Z" fill="#FE5244"/>
<path d="M284.342 544.072C269.572 551.352 270.962 565.323 270.832 574.702C270.68 584.693 251.74 589.918 251.74 589.918C256.779 573.936 253.195 557.474 253.195 557.474L284.342 544.072Z" fill="#A0505A"/>
<path d="M300.002 580.867L296.635 582.703L289.576 566.459C289.207 565.607 288.382 565.104 287.535 565.104C287.252 565.104 286.948 565.169 286.666 565.279C285.949 565.585 285.428 566.262 285.341 567.049L282.235 590.595L241.381 612.983C240.164 610.053 247.744 602.707 251.762 589.918C251.762 589.918 270.724 584.693 270.854 574.701C270.984 565.322 269.616 551.33 284.363 544.072L287.469 542.738C304.411 550.587 300.002 580.867 300.002 580.867Z" fill="#FFCF2D"/>
<path d="M287.449 427.393V542.739L253.653 557.497L228.328 441.691C239.666 442.128 258.562 439.723 287.449 427.393Z" fill="white"/>
<path fill-rule="evenodd" clip-rule="evenodd" d="M287.991 426.566V543.097L253.264 558.261L227.646 441.117L228.349 441.144C239.587 441.577 258.402 439.196 287.236 426.889L287.991 426.566ZM229.008 442.259L254.041 556.73L286.905 542.38V428.216C258.97 440.045 240.411 442.572 229.008 442.259Z" fill="#9A3B82"/>
<path fill-rule="evenodd" clip-rule="evenodd" d="M268.728 550.664L262.06 437.569L263.144 437.504L269.812 550.599L268.728 550.664Z" fill="#9A3B82"/>
<path d="M287.449 427.393V457.585L229.935 449.211L228.328 441.691C239.666 442.128 258.562 439.723 287.449 427.393Z" fill="#9A3B82"/>
<path d="M457.774 349.123L435.925 353.758C435.186 353.911 434.448 353.671 433.926 353.124C433.557 352.709 433.362 352.206 433.362 351.681C433.362 351.113 433.579 350.545 434.035 350.129L446.198 338.651L443.505 336.225C443.505 336.225 415.269 341.8 413.662 359.53L415.812 361.891C426.911 372.866 438.878 367.204 447.241 364.362C455.233 361.651 464.768 374.134 466.658 376.714C466.679 376.714 466.723 376.714 466.745 376.714C479.342 376.298 488.269 380.802 490.462 378.769L457.774 349.123Z" fill="#FFCF2D"/>
<path d="M415.834 361.891C426.933 372.866 438.9 367.203 447.262 364.361C456.167 361.344 466.788 376.713 466.788 376.713C451.02 377.216 437.575 385.633 437.575 385.633L415.834 361.891Z" fill="#A0505A"/>
<path d="M280.911 428.374C280.911 428.374 286.406 465.737 328.564 465.038C370.721 464.338 437.118 385.414 437.118 385.414L413.769 359.66L280.911 428.374Z" fill="white"/>
<path fill-rule="evenodd" clip-rule="evenodd" d="M413.891 358.984L437.841 385.402L437.533 385.769L437.118 385.416C437.533 385.769 437.532 385.769 437.532 385.77L437.52 385.784L437.484 385.827C437.451 385.865 437.403 385.922 437.339 385.997C437.212 386.147 437.022 386.37 436.773 386.66C436.275 387.239 435.54 388.089 434.59 389.17C432.689 391.333 429.927 394.423 426.482 398.132C419.591 405.549 409.963 415.448 399.014 425.371C388.066 435.292 375.787 445.247 363.595 452.769C351.416 460.282 339.26 465.408 328.573 465.586C307.302 465.939 295.227 456.675 288.489 447.29C285.127 442.608 283.101 437.907 281.914 434.378C281.321 432.612 280.937 431.138 280.701 430.102C280.583 429.584 280.501 429.175 280.45 428.895C280.424 428.755 280.405 428.646 280.393 428.572C280.387 428.535 280.382 428.507 280.379 428.487L280.376 428.465L280.375 428.458L280.374 428.457C280.374 428.456 280.374 428.456 280.911 428.376L280.374 428.456L280.317 428.068L413.891 358.984ZM281.514 428.678C281.515 428.684 281.516 428.689 281.517 428.695C281.567 428.961 281.645 429.355 281.759 429.857C281.988 430.862 282.363 432.301 282.943 434.027C284.104 437.482 286.087 442.078 289.369 446.649C295.918 455.771 307.669 464.839 328.555 464.493C338.947 464.32 350.9 459.318 363.027 451.837C375.141 444.363 387.365 434.456 398.287 424.559C409.207 414.663 418.812 404.788 425.688 397.385C429.126 393.684 431.881 390.602 433.776 388.446C434.724 387.368 435.456 386.521 435.952 385.945C436.13 385.737 436.278 385.564 436.394 385.428L413.649 360.339L281.514 428.678Z" fill="#9A3B82"/>
<path fill-rule="evenodd" clip-rule="evenodd" d="M357.489 430.731C348.992 434.857 340.716 437.435 333.178 437.557C323.097 437.722 316.316 435.47 311.872 431.858C307.422 428.241 305.387 423.322 304.679 418.307L305.754 418.153C306.435 422.977 308.375 427.611 312.554 431.007C316.737 434.407 323.238 436.626 333.16 436.464H333.161C340.479 436.345 348.593 433.837 357.018 429.747C365.437 425.659 374.134 420.007 382.609 413.638C399.56 400.901 415.583 385.331 426.672 373.775L427.453 374.535C416.346 386.11 400.277 401.727 383.259 414.514C374.75 420.908 365.992 426.603 357.489 430.731Z" fill="#9A3B82"/>
<path d="M464.919 283.448C461.075 281.983 451.931 287.012 445.046 295.757C437.639 305.136 434.642 315.105 437.9 317.707L333.581 261.87C328.455 259.137 322.548 263.816 324.003 269.456L355.583 389.875C248.614 459.748 214.319 438.803 214.319 438.803V43.0913C214.319 43.1132 214.319 43.1132 214.341 43.1351C215.253 45.4743 225.049 43.8347 236.234 39.4403C246.529 35.4176 254.392 30.4766 254.891 27.8969L254.913 27.875V152.557C254.913 160.384 259.105 167.577 265.882 171.403L464.919 283.448Z" fill="#FE5244"/>
<path d="M464.919 283.448C461.075 281.983 451.931 287.012 445.046 295.757C437.639 305.136 434.642 315.105 437.9 317.707L333.581 261.87C328.455 259.137 322.548 263.816 324.003 269.456L355.583 390.356C328.39 408.13 305.889 419.542 287.449 427.413C258.562 439.722 239.666 442.148 228.328 441.711C218.446 441.339 214.319 438.803 214.319 438.803V43.0913C214.319 43.1132 214.319 43.1132 214.341 43.1351C215.253 45.4743 225.049 43.8347 236.234 39.4403C246.529 35.4176 254.392 30.4766 254.891 27.8969L254.913 27.875V152.557C254.913 160.384 259.105 167.577 265.882 171.403L464.919 283.448Z" fill="#FE5244"/>
<path fill-rule="evenodd" clip-rule="evenodd" d="M314.72 251.851C314.891 251.533 315.287 251.415 315.603 251.587L438.21 318.53C438.526 318.703 438.643 319.101 438.472 319.42C438.3 319.738 437.905 319.856 437.588 319.684L314.982 252.74C314.665 252.568 314.548 252.169 314.72 251.851Z" fill="white"/>
<path d="M268.792 173.021L255.044 253.454L325.22 204.81L268.792 173.021Z" fill="#FFCF2D"/>
<path fill-rule="evenodd" clip-rule="evenodd" d="M268.903 172.375C269.258 172.436 269.496 172.775 269.435 173.132L255.949 252.03L324.85 204.269C325.147 204.064 325.552 204.139 325.757 204.437C325.961 204.736 325.886 205.144 325.589 205.35L254.14 254.877L268.15 172.91C268.211 172.553 268.548 172.313 268.903 172.375Z" fill="white"/>
<path d="M268.227 17.7749L177.635 36.4674C174.29 37.167 170.837 34.1718 169.946 29.7775C169.056 25.3831 171.054 21.2729 174.399 20.5733L264.991 1.88086L268.227 17.7749Z" fill="white"/>
<path fill-rule="evenodd" clip-rule="evenodd" d="M265.413 1.23438L268.868 18.1993L177.745 37.0013C177.745 37.0014 177.744 37.0015 177.744 37.0016M177.744 37.0016C175.872 37.3925 174.006 36.7412 172.515 35.4451C171.024 34.149 169.881 32.191 169.414 29.8854C168.491 25.3337 170.53 20.8229 174.288 20.0369L174.289 20.0366L265.413 1.23438M264.567 2.52476L174.509 21.1072C174.509 21.1072 174.508 21.1073 174.508 21.1073C171.577 21.7209 169.619 25.4302 170.478 29.667C170.901 31.7558 171.93 33.4925 173.225 34.6177C174.519 35.7426 176.052 36.239 177.524 35.931L177.526 35.9307L267.586 17.348L264.567 2.52476Z" fill="#3FB1B5"/>
<path d="M268.194 17.7864C271.543 17.0954 273.534 12.9779 272.64 8.58973C271.747 4.20153 268.307 1.20434 264.958 1.89533C261.609 2.58633 259.619 6.70383 260.513 11.092C261.406 15.4802 264.846 18.4774 268.194 17.7864Z" fill="white"/>
<path fill-rule="evenodd" clip-rule="evenodd" d="M261.633 5.3482C260.885 6.89514 260.62 8.89771 261.045 10.9841C261.47 13.0705 262.496 14.8065 263.788 15.9326C265.08 17.0581 266.611 17.5572 268.086 17.2529C269.561 16.9485 270.773 15.8835 271.52 14.3372C272.268 12.7903 272.534 10.7877 272.109 8.70132C271.684 6.61491 270.657 4.87891 269.365 3.75288C268.073 2.62732 266.543 2.12825 265.068 2.43258C263.593 2.73691 262.381 3.80192 261.633 5.3482ZM260.657 4.86993C261.518 3.08766 262.976 1.74842 264.85 1.36175C266.724 0.975093 268.587 1.62913 270.076 2.92647C271.564 4.22333 272.704 6.18003 273.172 8.48182C273.641 10.7836 273.358 13.0339 272.497 14.8155C271.635 16.5978 270.178 17.937 268.304 18.3237C266.43 18.7104 264.566 18.0563 263.078 16.759C261.59 15.4621 260.45 13.5054 259.981 11.2036C259.512 8.90183 259.795 6.65155 260.657 4.86993Z" fill="#3FB1B5"/>
<path d="M216.535 25.733C216.535 25.733 187.236 58.8766 190.428 66.1787C194.599 70.3545 197.987 72.1909 197.487 73.7432C196.944 75.4266 189.929 85.5927 189.929 85.5927L189.234 78.0501L182.523 80.2801C182.523 80.2801 189.603 69.8735 190.059 66.6816C187.149 64.4516 181.219 59.8167 181.415 56.5811C181.632 53.1487 192.014 40.9493 199.551 32.5323L188.191 36.3145L185.954 25.7549L206.392 21.9727L216.535 25.733Z" fill="#FE5244"/>
<path d="M212.559 27.1757C215.966 27.1757 218.727 24.3959 218.727 20.9668C218.727 17.5377 215.966 14.7578 212.559 14.7578C209.152 14.7578 206.391 17.5377 206.391 20.9668C206.391 24.3959 209.152 27.1757 212.559 27.1757Z" fill="white"/>
<path fill-rule="evenodd" clip-rule="evenodd" d="M212.56 15.3041C209.453 15.3041 206.935 17.8392 206.935 20.9665C206.935 24.0937 209.453 26.6289 212.56 26.6289C215.667 26.6289 218.185 24.0937 218.185 20.9665C218.185 17.8392 215.667 15.3041 212.56 15.3041ZM205.849 20.9665C205.849 17.2355 208.853 14.2109 212.56 14.2109C216.267 14.2109 219.271 17.2355 219.271 20.9665C219.271 24.6974 216.267 27.722 212.56 27.722C208.853 27.722 205.849 24.6974 205.849 20.9665Z" fill="#FE5244"/>
<path d="M254.892 27.8974C254.392 30.4771 246.53 35.4181 236.235 39.4408C225.049 43.8133 215.254 45.4748 214.341 43.1356C214.341 43.1137 214.341 43.1137 214.32 43.0918C213.538 40.7307 221.835 35.3306 232.955 30.98C244.141 26.6075 253.936 24.9459 254.848 27.2852C254.913 27.4601 254.935 27.6569 254.892 27.8974Z" fill="#9A3B82"/>
<path d="M247.353 9.53362L246.159 26.8925L245.594 35.2003C242.879 36.6432 239.686 38.0861 236.233 39.4416C230.368 41.7372 224.895 43.2675 220.877 43.9016V28.0293L237.362 24.6188C237.362 24.6188 238.274 18.694 240.012 13.7312C241.728 8.74656 247.353 9.53362 247.353 9.53362Z" fill="#A0505A"/>
<path fill-rule="evenodd" clip-rule="evenodd" d="M237.921 23.4716C238.154 23.5289 238.297 23.7656 238.24 24.0002C238.2 24.1662 238.101 24.298 238.016 24.3919C237.926 24.4914 237.813 24.5871 237.694 24.6783C237.456 24.8604 237.138 25.0618 236.787 25.2785C236.685 25.3414 236.58 25.406 236.471 25.4726C235.817 25.8734 235.048 26.3448 234.283 26.9127C232.487 28.2469 230.846 30.0187 230.846 32.4228C230.846 32.6642 230.652 32.86 230.412 32.86C230.172 32.86 229.978 32.6642 229.978 32.4228C229.978 29.5798 231.921 27.5802 233.768 26.209C234.566 25.616 235.371 25.1227 236.024 24.7227C236.132 24.657 236.235 24.5938 236.333 24.533C236.688 24.3142 236.969 24.1339 237.169 23.9816C237.268 23.9057 237.335 23.846 237.375 23.8013C237.39 23.7849 237.399 23.7737 237.403 23.7675C237.47 23.5478 237.697 23.4163 237.921 23.4716Z" fill="#73325A"/>
<path d="M246.159 26.8906L245.594 35.1984C242.879 36.6413 239.686 38.0843 236.233 39.4397C230.369 41.7353 224.895 43.2657 220.877 43.8997V36.7288C224.091 34.8267 228.283 32.8154 232.953 30.9789C237.818 29.055 242.423 27.6558 246.159 26.8906Z" fill="#73325A"/>
<path d="M235.366 18.211L216.97 22.4523C215.992 22.671 215.08 21.8839 215.08 20.7908V9.55343C215.08 8.04492 215.992 6.73316 217.317 6.29591L235.496 0.327439C236.648 -0.0442239 237.799 0.874001 237.799 2.16389V14.9753C237.777 16.5276 236.778 17.8831 235.366 18.211Z" fill="#A0505A"/>
<path fill-rule="evenodd" clip-rule="evenodd" d="M222.36 5.07674C222.429 5.30794 222.299 5.55189 222.069 5.62162C220.885 5.98111 220.076 7.07852 220.076 8.32934V19.1076C220.076 19.8781 220.776 20.4357 221.504 20.2763C221.739 20.225 221.97 20.3747 222.021 20.6107C222.072 20.8466 221.923 21.0795 221.689 21.1308C220.419 21.4087 219.207 20.4359 219.207 19.1076V8.32934C219.207 6.6943 220.266 5.25566 221.819 4.78436C222.048 4.71464 222.291 4.84554 222.36 5.07674Z" fill="#73325A"/>
<path fill-rule="evenodd" clip-rule="evenodd" d="M227.659 3.45955C227.729 3.69075 227.598 3.9347 227.369 4.00443C226.194 4.36101 225.376 5.49476 225.376 6.79961V17.9058C225.376 18.7107 226.087 19.275 226.804 19.1182C227.038 19.0669 227.269 19.2166 227.32 19.4526C227.371 19.6886 227.223 19.9215 226.988 19.9728C225.706 20.2533 224.507 19.2434 224.507 17.9058V6.79961C224.507 5.13114 225.556 3.64138 227.118 3.16718C227.348 3.09745 227.59 3.22835 227.659 3.45955Z" fill="#73325A"/>
<path fill-rule="evenodd" clip-rule="evenodd" d="M233.586 1.63905C233.659 1.86922 233.532 2.11504 233.304 2.18811C232.132 2.56266 231.304 3.73737 231.304 5.09446V16.5942C231.304 17.4333 232.028 18.0045 232.732 17.8503C232.967 17.799 233.198 17.9487 233.249 18.1847C233.3 18.4207 233.151 18.6536 232.917 18.7049C231.623 18.9879 230.436 17.9413 230.436 16.5942V5.09446C230.436 3.39079 231.476 1.85455 233.041 1.3546C233.269 1.28153 233.514 1.40888 233.586 1.63905Z" fill="#73325A"/>
<path d="M456.84 305.179C449.433 314.58 441.136 320.286 437.879 317.684C434.621 315.083 437.618 305.135 445.024 295.734C451.931 286.989 461.053 281.961 464.897 283.426L465.658 283.863C468.937 286.487 464.246 295.8 456.84 305.179Z" fill="#9A3B82"/>
<path d="M490.353 320.986L485.423 323.61C483.468 324.659 481.036 323.916 479.993 321.948L474.802 312.241L466.94 309.531C467.809 309.858 471.197 311.607 470.132 317.969L451.671 311.039L445.329 308.656L439.312 304.786C440.724 301.901 442.657 298.796 445.068 295.757C447.088 293.199 449.282 290.969 451.475 289.133L457.752 293.549L464.181 294.249L474.628 295.364C476.301 295.539 477.908 296.107 479.32 297.003L487.66 302.972C488.876 303.846 489.68 305.158 489.876 306.645L491.57 318.582C491.722 319.565 491.222 320.527 490.353 320.986Z" fill="#A0505A"/>
<path fill-rule="evenodd" clip-rule="evenodd" d="M477.859 301.295C477.998 301.098 478.269 301.052 478.465 301.192L485.696 306.373C485.697 306.373 485.697 306.373 485.697 306.373C486.839 307.188 487.595 308.453 487.808 309.856C487.808 309.856 487.808 309.856 487.808 309.856L489.286 319.502L489.286 319.508C489.417 320.535 488.92 321.548 487.99 322.029C487.776 322.14 487.514 322.055 487.405 321.84C487.295 321.625 487.379 321.362 487.592 321.251C488.181 320.947 488.509 320.3 488.425 319.624L486.949 309.988C486.771 308.811 486.137 307.759 485.194 307.087L477.961 301.905C477.765 301.765 477.72 301.492 477.859 301.295Z" fill="#73325A"/>
<path fill-rule="evenodd" clip-rule="evenodd" d="M473.382 303.024C473.521 302.827 473.793 302.781 473.988 302.921L481.22 308.102C481.22 308.102 481.22 308.102 481.22 308.102C482.362 308.916 483.119 310.182 483.331 311.585L484.809 321.231L484.81 321.236C484.94 322.263 484.443 323.276 483.513 323.758C483.3 323.868 483.038 323.784 482.928 323.569C482.818 323.354 482.902 323.09 483.116 322.98C483.705 322.675 484.033 322.029 483.949 321.353L482.472 311.716C482.294 310.54 481.661 309.488 480.718 308.815L480.717 308.815L473.484 303.633C473.289 303.493 473.243 303.22 473.382 303.024Z" fill="#73325A"/>
<path fill-rule="evenodd" clip-rule="evenodd" d="M461.271 307.574C461.348 307.346 461.595 307.223 461.822 307.301L467.078 309.093C467.305 309.171 467.427 309.419 467.35 309.648C467.273 309.876 467.026 309.999 466.799 309.921L461.543 308.129C461.316 308.051 461.194 307.803 461.271 307.574Z" fill="#73325A"/>
<path d="M464.181 294.249C462.422 297.594 459.859 301.398 456.862 305.202C455.146 307.366 453.408 309.334 451.671 311.039L445.329 308.656L439.312 304.786C440.724 301.901 442.657 298.796 445.068 295.757C447.088 293.199 449.282 290.969 451.475 289.133L457.752 293.549L464.181 294.249Z" fill="#73325A"/>
<path d="M274.524 114.646L320.982 135.394L337.554 184.191L303.889 159.968L288.186 140.663L274.524 114.646Z" fill="#FE5244"/>
<path d="M288.187 140.663C288.187 140.663 303.39 143.287 309.515 160.339L312.751 157.06C312.751 157.06 306.865 140.466 291.314 136.203L288.187 140.663Z" fill="#9A3B82"/>
<path d="M378.799 161.849C373.586 158.875 368.764 157.236 367.222 157.826C367.331 157.564 367.396 157.257 367.374 156.951C367.287 155.989 366.505 155.268 365.571 155.268C365.528 155.268 365.484 155.268 365.419 155.268C364.42 155.355 363.682 156.23 363.747 157.236C363.747 157.301 363.769 157.367 363.769 157.411L358.252 160.974C357.014 161.783 355.493 161.827 354.19 161.105C352.887 160.384 352.127 159.072 352.127 157.585V149.606C352.127 146.129 350.411 142.916 347.522 140.992C344.634 139.068 341.007 138.762 337.835 140.117L327.323 144.84L323.327 133.056L276.63 112.221C276.347 112.089 276 112.221 275.87 112.527C275.739 112.811 275.87 113.161 276.174 113.292L322.393 133.93L338.878 182.487C338.965 182.727 339.182 182.88 339.421 182.88C339.486 182.88 339.551 182.859 339.617 182.859C339.921 182.749 340.073 182.421 339.986 182.115L327.714 145.955L338.313 141.188C341.137 139.964 344.351 140.248 346.893 141.954C349.455 143.659 350.976 146.501 350.976 149.606V157.585C350.976 159.509 351.975 161.215 353.647 162.133C354.429 162.57 355.276 162.789 356.123 162.789C357.079 162.789 358.035 162.504 358.882 161.958L364.355 158.438C364.681 158.744 365.115 158.919 365.571 158.919C365.615 158.919 365.68 158.919 365.723 158.919C366.114 158.897 366.462 158.744 366.722 158.504C366.722 160.056 370.675 163.532 376.105 166.636C377.278 167.314 378.451 167.926 379.559 168.451C380.232 167.883 380.797 167.205 381.253 166.396C381.709 165.609 381.991 164.756 382.122 163.882C381.079 163.226 379.971 162.526 378.799 161.849ZM365.615 158.001C365.115 158.045 364.703 157.673 364.659 157.192C364.616 156.711 364.985 156.274 365.463 156.23C365.941 156.186 366.375 156.558 366.418 157.039C366.462 157.52 366.093 157.957 365.615 158.001Z" fill="#FFCF2D"/>
<path d="M285.168 169.412L277.132 214.406L304.52 193.155V165.105L285.168 169.412Z" fill="#A0505A"/>
<path d="M285.168 169.412L284.169 175.053L296.288 199.539L304.52 193.155V165.105L285.168 169.412Z" fill="#73325A"/>
<path d="M288.641 141.123C288.641 141.123 274.936 137.69 270.658 145.692C266.379 153.693 278.889 155.902 279.411 153.103C279.65 151.879 256.888 151.901 260.71 169.238C264.685 187.296 282.603 181.087 282.603 181.087L284.689 169.413L288.641 141.123Z" fill="white"/>
<path fill-rule="evenodd" clip-rule="evenodd" d="M288.746 140.698C288.747 140.698 288.747 140.698 288.642 141.122L288.747 140.698L289.127 140.793L285.118 169.482L282.986 181.417L282.745 181.501L282.604 181.087C282.745 181.501 282.745 181.501 282.745 181.501L282.744 181.501L282.741 181.502L282.729 181.506C282.72 181.509 282.706 181.514 282.688 181.52C282.651 181.532 282.598 181.549 282.53 181.57C282.393 181.613 282.193 181.672 281.939 181.741C281.43 181.878 280.702 182.053 279.815 182.206C278.046 182.511 275.634 182.728 273.087 182.367C270.538 182.006 267.841 181.064 265.524 179.038C263.204 177.009 261.297 173.923 260.287 169.332C259.31 164.901 260.024 161.524 261.692 158.989C263.351 156.467 265.919 154.831 268.56 153.802C269.526 153.426 270.505 153.129 271.461 152.898C270.739 152.34 270.132 151.644 269.752 150.799C269.105 149.36 269.157 147.577 270.276 145.484C272.531 141.267 277.242 140.113 281.239 139.969C283.253 139.897 285.127 140.079 286.496 140.278C287.181 140.378 287.741 140.482 288.131 140.562C288.326 140.602 288.479 140.635 288.583 140.659C288.636 140.671 288.676 140.681 288.703 140.687C288.717 140.691 288.728 140.693 288.735 140.695L288.743 140.697L288.746 140.698L288.746 140.698ZM272.49 153.565C271.313 153.805 270.08 154.147 268.874 154.618C266.333 155.608 263.942 157.152 262.416 159.472C260.898 161.779 260.201 164.906 261.135 169.143C262.112 173.581 263.936 176.491 266.093 178.377C268.254 180.266 270.781 181.157 273.209 181.501C275.638 181.846 277.955 181.639 279.669 181.344C280.525 181.197 281.227 181.028 281.714 180.896C281.926 180.839 282.098 180.788 282.223 180.75L284.26 169.343L288.156 141.46C288.097 141.448 288.031 141.434 287.958 141.419C287.582 141.342 287.038 141.241 286.372 141.144C285.037 140.949 283.217 140.773 281.27 140.843C277.345 140.984 273.065 142.114 271.041 145.899C270.02 147.807 270.032 149.301 270.543 150.439C270.954 151.352 271.712 152.091 272.638 152.645C273.867 152.41 275.028 152.282 276.031 152.233C277.069 152.182 277.952 152.213 278.579 152.301C278.888 152.344 279.16 152.404 279.363 152.487C279.461 152.528 279.577 152.587 279.671 152.68C279.773 152.779 279.882 152.956 279.838 153.185C279.739 153.714 279.361 154.079 278.903 154.308C278.448 154.535 277.869 154.655 277.244 154.687C275.993 154.753 274.445 154.474 273.057 153.846C272.865 153.76 272.676 153.666 272.49 153.565ZM274.034 153.3C274.762 153.199 275.449 153.137 276.074 153.106C277.077 153.057 277.903 153.089 278.46 153.167C278.636 153.191 278.776 153.219 278.881 153.247C278.807 153.343 278.691 153.438 278.517 153.525C278.205 153.681 277.755 153.785 277.2 153.814C276.271 153.863 275.128 153.695 274.034 153.3Z" fill="#9A3B82"/>
<path d="M304.302 167.008C304.302 167.008 283.842 193.855 301.825 205.267C316.247 214.406 319.961 201.529 316.095 199.758C311.903 197.834 302.282 234.126 331.907 234.017C361.598 233.907 352.519 196.588 337.554 184.214C330.408 178.311 306.56 161.805 306.56 161.805L304.302 167.008Z" fill="white"/>
<path fill-rule="evenodd" clip-rule="evenodd" d="M306.806 161.445L306.56 161.805C306.806 161.445 306.806 161.445 306.807 161.445L306.875 161.492C306.92 161.524 306.988 161.57 307.076 161.632C307.253 161.754 307.512 161.934 307.846 162.166C308.512 162.629 309.472 163.297 310.646 164.117C312.994 165.757 316.199 168.005 319.628 170.438C326.479 175.3 334.242 180.912 337.829 183.876C345.415 190.148 351.477 202.692 351.91 213.697C352.127 219.209 350.935 224.392 347.752 228.21C344.56 232.04 339.425 234.426 331.908 234.454C324.409 234.482 319.332 232.203 316.035 228.742C312.747 225.291 311.279 220.718 310.887 216.246C310.666 213.724 310.785 211.222 311.118 208.948C308.632 209.006 305.466 208.091 301.594 205.638L301.594 205.638C296.986 202.714 294.824 198.782 294.196 194.54C293.57 190.318 294.465 185.815 295.91 181.712C297.357 177.605 299.369 173.864 301.015 171.153C301.839 169.797 302.573 168.696 303.101 167.934C303.365 167.553 303.578 167.256 303.726 167.054C303.799 166.953 303.857 166.875 303.896 166.823C303.907 166.808 303.916 166.796 303.924 166.785L306.373 161.145L306.806 161.445ZM312.006 208.884C311.661 211.143 311.531 213.647 311.752 216.169C312.133 220.515 313.553 224.874 316.662 228.137C319.762 231.39 324.592 233.607 331.905 233.58C339.234 233.553 344.098 231.234 347.087 227.648C350.085 224.051 351.254 219.111 351.042 213.732C350.618 202.957 344.658 190.654 337.278 184.552C333.72 181.613 325.986 176.02 319.127 171.153C315.701 168.722 312.497 166.475 310.15 164.835C308.977 164.016 308.018 163.348 307.352 162.885C307.111 162.718 306.908 162.577 306.747 162.466L304.678 167.232L304.646 167.274L304.417 167.097C304.646 167.274 304.646 167.274 304.646 167.274L304.645 167.275L304.643 167.278L304.633 167.292C304.623 167.304 304.609 167.323 304.591 167.348C304.553 167.398 304.498 167.473 304.426 167.571C304.283 167.768 304.074 168.059 303.814 168.434C303.293 169.185 302.569 170.27 301.756 171.609C300.128 174.29 298.149 177.974 296.729 182.004C295.307 186.04 294.459 190.388 295.055 194.411C295.648 198.412 297.673 202.115 302.057 204.898C305.935 207.355 308.97 208.17 311.26 208.067C311.509 206.646 311.84 205.331 312.219 204.178C312.74 202.59 313.363 201.28 314.009 200.419C314.331 199.99 314.679 199.645 315.049 199.443C315.431 199.234 315.86 199.17 316.275 199.36C317.465 199.905 317.991 201.258 317.959 202.661C317.926 204.083 317.331 205.68 316.128 206.911C315.137 207.924 313.767 208.664 312.006 208.884ZM312.159 207.975C312.395 206.69 312.699 205.501 313.044 204.452C313.55 202.91 314.136 201.701 314.702 200.946C314.987 200.567 315.246 200.33 315.463 200.212C315.668 200.1 315.806 200.106 315.915 200.156L315.915 200.156C316.658 200.497 317.118 201.417 317.09 202.641C317.063 203.846 316.553 205.229 315.509 206.297C314.73 207.093 313.625 207.736 312.159 207.975Z" fill="#9A3B82"/>
<path d="M303.694 160.274L305.236 161.258C306.735 162.22 307.169 164.209 306.235 165.718L305.931 166.177C304.975 167.685 302.999 168.144 301.5 167.182L299.849 166.133C298.025 167.445 287.057 174.812 280.28 167.488C273.699 160.383 288.903 139.592 288.903 139.592C301.804 143.658 306.843 155.202 306.843 155.202L303.694 160.274Z" fill="#A0505A"/>
<path fill-rule="evenodd" clip-rule="evenodd" d="M284.262 144.162C284.345 143.936 284.595 143.82 284.82 143.905L284.669 144.314C284.82 143.905 284.821 143.905 284.821 143.905L284.821 143.905L284.822 143.905L284.825 143.906L284.836 143.91C284.844 143.914 284.856 143.918 284.871 143.924C284.901 143.936 284.943 143.954 284.995 143.977C285.1 144.023 285.247 144.092 285.422 144.184C285.769 144.367 286.232 144.647 286.687 145.032C287.592 145.801 288.512 147.036 288.315 148.78C288.138 150.349 287.266 152.322 286.539 153.966C286.514 154.023 286.489 154.08 286.464 154.136C286.085 154.994 285.754 155.752 285.563 156.346C285.467 156.643 285.415 156.874 285.403 157.04C285.395 157.153 285.407 157.2 285.411 157.212C285.733 157.56 286.113 157.771 286.42 157.895C286.574 157.958 286.706 157.997 286.798 158.02C286.843 158.032 286.879 158.04 286.901 158.044C286.912 158.046 286.92 158.048 286.924 158.048L286.928 158.049L286.927 158.049L286.927 158.049C286.927 158.049 286.928 158.049 286.928 158.049L286.928 158.049C286.929 158.049 286.928 158.049 286.928 158.049L286.928 158.049C287.165 158.085 287.328 158.307 287.292 158.546C287.257 158.785 287.036 158.949 286.799 158.914L286.863 158.481C286.799 158.914 286.799 158.914 286.798 158.914L286.798 158.914L286.797 158.914L286.796 158.913L286.791 158.913C286.788 158.912 286.783 158.911 286.778 158.91C286.767 158.908 286.752 158.906 286.734 158.902C286.697 158.895 286.647 158.884 286.585 158.868C286.461 158.837 286.291 158.786 286.095 158.706C285.704 158.548 285.198 158.27 284.762 157.794C284.543 157.554 284.518 157.232 284.536 156.977C284.556 156.707 284.633 156.398 284.737 156.076C284.945 155.429 285.297 154.626 285.67 153.781C285.684 153.75 285.697 153.719 285.711 153.688C286.464 151.984 287.29 150.114 287.452 148.681C287.603 147.343 286.915 146.37 286.127 145.701C285.734 145.367 285.328 145.121 285.018 144.958C284.864 144.877 284.736 144.817 284.648 144.778C284.603 144.759 284.569 144.745 284.547 144.736C284.536 144.731 284.527 144.728 284.523 144.726L284.518 144.724L284.517 144.724C284.517 144.724 284.517 144.724 284.517 144.724L284.517 144.724C284.517 144.724 284.517 144.724 284.517 144.724L284.517 144.724M284.262 144.162C284.178 144.388 284.292 144.64 284.517 144.724L284.262 144.162Z" fill="#73325A"/>
<path fill-rule="evenodd" clip-rule="evenodd" d="M283.798 160.34C283.586 160.722 283.586 160.722 283.587 160.722L283.587 160.722L283.588 160.723L283.59 160.724L283.598 160.728C283.605 160.732 283.614 160.737 283.626 160.743C283.65 160.756 283.683 160.773 283.726 160.794C283.813 160.837 283.938 160.897 284.098 160.965C284.419 161.103 284.882 161.278 285.461 161.434C286.618 161.747 288.244 161.986 290.12 161.69C290.357 161.653 290.519 161.429 290.482 161.19C290.445 160.952 290.223 160.789 289.986 160.826C288.257 161.099 286.755 160.878 285.686 160.59C285.152 160.445 284.727 160.284 284.438 160.161C284.294 160.099 284.184 160.047 284.111 160.01C284.075 159.992 284.048 159.978 284.031 159.969C284.022 159.965 284.016 159.961 284.012 159.96L284.009 159.958C284.009 159.957 284.009 159.957 284.009 159.957L284.009 159.958C283.799 159.84 283.535 159.916 283.418 160.127C283.302 160.338 283.377 160.604 283.586 160.722L283.798 160.34Z" fill="#73325A"/>
<path d="M295.155 155.965C295.462 155.152 295.357 154.358 294.92 154.19C294.483 154.023 293.879 154.545 293.572 155.357C293.264 156.17 293.369 156.964 293.806 157.132C294.243 157.3 294.847 156.777 295.155 155.965Z" fill="#73325A"/>
<path d="M285.128 151.333C285.384 150.656 285.292 149.992 284.922 149.85C284.552 149.709 284.045 150.142 283.788 150.819C283.532 151.496 283.624 152.16 283.994 152.302C284.364 152.444 284.871 152.01 285.128 151.333Z" fill="#73325A"/>
<path fill-rule="evenodd" clip-rule="evenodd" d="M305.155 163.77C304.402 163.288 303.411 163.511 302.931 164.27C302.802 164.473 302.534 164.533 302.331 164.404C302.129 164.274 302.069 164.004 302.198 163.8C302.934 162.635 304.462 162.29 305.621 163.032C305.823 163.162 305.883 163.432 305.754 163.636C305.625 163.839 305.357 163.899 305.155 163.77Z" fill="#73325A"/>
<path fill-rule="evenodd" clip-rule="evenodd" d="M294.13 150.081C294.193 149.848 294.432 149.71 294.663 149.773L294.55 150.195C294.663 149.773 294.663 149.773 294.664 149.773L294.664 149.773L294.665 149.774L294.668 149.775L294.677 149.777C294.685 149.779 294.694 149.782 294.707 149.786C294.731 149.793 294.765 149.804 294.807 149.819C294.892 149.848 295.011 149.893 295.157 149.956C295.449 150.083 295.848 150.285 296.292 150.592C297.18 151.206 298.244 152.24 298.966 153.912C299.062 154.134 298.961 154.392 298.741 154.488C298.521 154.584 298.265 154.482 298.169 154.261C297.523 152.764 296.578 151.851 295.8 151.313C295.41 151.043 295.061 150.867 294.813 150.759C294.689 150.705 294.591 150.669 294.525 150.646C294.493 150.635 294.468 150.627 294.453 150.622C294.446 150.62 294.44 150.618 294.437 150.618L294.435 150.617C294.204 150.553 294.068 150.314 294.13 150.081Z" fill="#73325A"/>
<path d="M298.502 144.883C298.502 144.883 295.613 154.524 303.888 161.105C308.754 164.975 309.036 160.318 309.036 160.318C309.036 160.318 308.406 150.851 298.502 144.883Z" fill="white"/>
<path fill-rule="evenodd" clip-rule="evenodd" d="M298.247 144.219L298.725 144.507C303.766 147.545 306.453 151.478 307.879 154.658C308.591 156.246 308.988 157.646 309.207 158.651C309.316 159.154 309.382 159.558 309.42 159.84C309.439 159.98 309.451 160.09 309.458 160.166C309.462 160.204 309.465 160.233 309.466 160.253C309.467 160.264 309.468 160.272 309.468 160.277L309.469 160.284L309.469 160.287L309.469 160.287C309.469 160.288 309.469 160.288 309.036 160.317C309.469 160.344 309.469 160.344 309.469 160.344L309.469 160.346L309.469 160.351C309.468 160.354 309.468 160.359 309.468 160.365C309.467 160.376 309.465 160.392 309.464 160.411C309.46 160.45 309.454 160.505 309.444 160.572C309.425 160.706 309.391 160.891 309.334 161.1C309.223 161.509 309.009 162.054 308.593 162.471C308.156 162.909 307.527 163.174 306.68 163.046C305.862 162.922 304.862 162.436 303.619 161.447C299.368 158.067 297.98 153.891 297.659 150.568C297.499 148.909 297.604 147.463 297.75 146.43C297.822 145.913 297.905 145.499 297.97 145.212C298.003 145.068 298.031 144.956 298.052 144.879C298.062 144.841 298.07 144.811 298.076 144.79C298.079 144.78 298.081 144.772 298.083 144.766L298.085 144.759L298.085 144.757L298.086 144.756C298.086 144.756 298.086 144.756 298.502 144.882L298.086 144.756L298.247 144.219ZM298.782 145.568C298.728 145.822 298.666 146.154 298.61 146.553C298.472 147.533 298.372 148.908 298.524 150.483C298.828 153.626 300.133 157.56 304.157 160.761C305.347 161.707 306.206 162.09 306.81 162.181C307.384 162.268 307.738 162.094 307.98 161.852C308.242 161.589 308.403 161.212 308.497 160.869C308.542 160.701 308.569 160.553 308.584 160.447C308.592 160.394 308.596 160.353 308.599 160.325C308.599 160.322 308.6 160.319 308.6 160.317C308.598 160.301 308.597 160.28 308.594 160.253C308.587 160.187 308.576 160.087 308.559 159.958C308.524 159.698 308.462 159.316 308.358 158.838C308.15 157.882 307.77 156.542 307.087 155.018C305.769 152.078 303.321 148.452 298.782 145.568ZM309.036 160.317L309.469 160.344L309.471 160.316L309.469 160.288L309.036 160.317Z" fill="#9A3B82"/>
</svg>
