<svg width="48" height="48" viewBox="0 0 48 48" fill="none" xmlns="http://www.w3.org/2000/svg">
<g clip-path="url(#clip0_38816_104)">
<path d="M32.8015 23.6183C32.6273 23.444 32.3856 23.3438 32.1392 23.3438C31.8928 23.3438 31.651 23.4439 31.4767 23.6183C31.3025 23.7927 31.2021 24.0344 31.2021 24.2808C31.2021 24.5272 31.3023 24.7689 31.4767 24.9431C31.651 25.1174 31.8928 25.2178 32.1392 25.2178C32.3856 25.2178 32.6264 25.1176 32.8015 24.9431C32.9758 24.7689 33.0762 24.5272 33.0762 24.2808C33.0762 24.0344 32.9759 23.7926 32.8015 23.6183Z" fill="#FF3F3A"/>
<path d="M38.9807 2.54102H8.9955C8.47809 2.54102 8.05847 2.96064 8.05847 3.47805V18.4706C8.05847 18.988 8.47809 19.4077 8.9955 19.4077H23.0511V23.3432H7.04353C6.52612 23.3432 6.1065 23.7628 6.1065 24.2802V31.5891H0.937031C0.419625 31.5891 0 32.0087 0 32.5261V44.5202C0 45.0376 0.419625 45.4572 0.937031 45.4572H12.9311C13.4485 45.4572 13.8682 45.0376 13.8682 44.5202V32.5261C13.8682 32.0087 13.4485 31.5891 12.9311 31.5891H7.98056V25.2173H23.0511V31.5891H18.003C17.4856 31.5891 17.066 32.0087 17.066 32.5261V44.5202C17.066 45.0376 17.4856 45.4572 18.003 45.4572H29.9971C30.5145 45.4572 30.9341 45.0376 30.9341 44.5202V32.5261C30.9341 32.0086 30.5145 31.5891 29.9971 31.5891H24.9252V25.2173H28.6733C29.1908 25.2173 29.6104 24.7976 29.6104 24.2802C29.6104 23.7628 29.1908 23.3432 28.6733 23.3432H24.9252V19.4077H38.9808C39.4982 19.4077 39.9178 18.988 39.9178 18.4706V3.47805C39.9177 2.96055 39.4981 2.54102 38.9807 2.54102ZM11.9941 33.4631V43.5831H1.87406V33.4631H11.9941ZM29.06 33.4631V43.5831H18.94V33.4631H29.06ZM38.0437 17.5335H9.93253V8.1632H16.2803C16.7978 8.1632 17.2174 7.74358 17.2174 7.22617C17.2174 6.70877 16.7978 6.28914 16.2803 6.28914H9.93253V4.41508H38.0436V17.5335H38.0437Z" fill="#FF3F3A"/>
<path d="M47.0639 31.5896H41.8707V24.2808C41.8707 23.7634 41.451 23.3438 40.9336 23.3438H35.7957C35.2782 23.3438 34.8586 23.7634 34.8586 24.2808C34.8586 24.7982 35.2782 25.2178 35.7957 25.2178H39.9966V31.5896H35.0698C34.5524 31.5896 34.1328 32.0092 34.1328 32.5267V44.5207C34.1328 45.0382 34.5524 45.4578 35.0698 45.4578H47.0639C47.5813 45.4578 48.001 45.0382 48.001 44.5207V32.5267C48.001 32.0092 47.5813 31.5896 47.0639 31.5896ZM46.1269 43.5836H36.0069V33.4637H46.1269V43.5836Z" fill="#FF3F3A"/>
<path d="M20.8847 6.56561C20.7103 6.39133 20.4686 6.29102 20.2223 6.29102C19.9749 6.29102 19.7341 6.39114 19.5588 6.56561C19.3846 6.73989 19.2852 6.98167 19.2852 7.22805C19.2852 7.47452 19.3845 7.7162 19.5588 7.89039C19.734 8.06467 19.9758 8.16508 20.2223 8.16508C20.4688 8.16508 20.7095 8.06486 20.8847 7.89039C21.059 7.7162 21.1593 7.47442 21.1593 7.22805C21.1593 6.98167 21.0592 6.73989 20.8847 6.56561Z" fill="#FF3F3A"/>
</g>
<defs>
<clipPath id="clip0_38816_104">
<rect width="48" height="48" fill="white"/>
</clipPath>
</defs>
</svg>
